<?xml version="1.0" standalone="no"?>
<!DOCTYPE svg PUBLIC "-//W3C//DTD SVG 20010904//EN"
 "http://www.w3.org/TR/2001/REC-SVG-20010904/DTD/svg10.dtd">
<svg version="1.0" xmlns="http://www.w3.org/2000/svg"
 width="500.000000pt" height="500.000000pt" viewBox="0 0 500.000000 500.000000"
 preserveAspectRatio="xMidYMid meet">
<metadata>
Created by potrace 1.14, written by Peter Selinger 2001-2017
</metadata>
<g transform="translate(0.000000,500.000000) scale(0.100000,-0.100000)"
fill="#000000" stroke="none">
<path d="M2928 4783 c-20 -5 -25 -23 -6 -23 6 0 8 -3 5 -6 -4 -4 -13 -1 -22 6
-11 9 -18 10 -28 1 -8 -6 -18 -7 -22 -3 -5 4 -5 1 -1 -5 4 -8 2 -13 -5 -13 -7
0 -9 -3 -6 -6 4 -4 14 -1 22 6 12 10 18 11 28 1 9 -10 8 -11 -5 -6 -10 4 -18
3 -18 -3 0 -6 9 -14 20 -17 11 -4 18 -10 16 -14 -3 -4 15 -12 39 -19 52 -14
103 -56 130 -109 11 -21 22 -40 25 -43 4 -4 7 -19 12 -65 1 -13 -10 -94 -17
-122 -3 -13 -7 -31 -9 -40 -9 -39 -107 -246 -118 -251 -5 -2 -8 -8 -8 -13 0
-5 -9 -28 -20 -52 -35 -77 -48 -125 -37 -136 8 -8 7 -11 -2 -11 -27 0 26 -35
84 -55 16 -6 17 -8 5 -13 -32 -11 -132 -85 -179 -132 -129 -129 -183 -270
-155 -406 6 -32 10 -62 7 -66 -2 -5 1 -8 6 -8 6 0 10 -3 9 -7 -1 -9 7 -32 35
-92 11 -24 28 -68 37 -99 16 -50 16 -62 3 -116 -7 -33 -17 -63 -21 -66 -10 -7
-36 -63 -34 -72 1 -5 -6 -8 -15 -8 -25 0 -11 -8 26 -15 22 -4 30 -2 26 5 -4 7
2 6 15 -2 18 -10 24 -10 27 0 3 6 8 10 13 7 10 -6 57 14 84 35 101 81 104 123
31 360 -20 63 -39 126 -43 140 -9 31 -8 156 1 190 36 133 180 254 317 266 30
3 70 13 88 22 40 21 78 92 64 119 -13 24 -43 51 -62 55 -32 7 -80 63 -84 98
-4 42 17 116 54 190 89 178 97 321 23 450 -33 56 -91 114 -146 142 -40 20
-145 32 -189 21z m-182 -2065 c4 -7 3 -10 -1 -5 -5 4 -17 0 -27 -10 -22 -20
-24 -11 -2 11 19 19 21 19 30 4z"/>
<path d="M2868 4703 c7 -3 16 -2 19 1 4 3 -2 6 -13 5 -11 0 -14 -3 -6 -6z"/>
<path d="M1485 4361 c-3 -6 -12 -8 -19 -5 -8 3 -17 1 -21 -5 -3 -6 -15 -11
-26 -11 -10 0 -19 -4 -19 -10 0 -5 -7 -10 -15 -10 -8 0 -34 -9 -58 -19 -23
-11 -59 -24 -79 -31 -21 -6 -40 -16 -43 -21 -4 -5 -15 -9 -26 -9 -10 0 -19 -3
-19 -8 0 -4 -13 -13 -29 -20 -37 -16 -128 -107 -132 -132 0 -3 -3 -14 -5 -25
-11 -49 -11 -122 1 -162 7 -24 13 -45 13 -46 0 -17 66 -147 74 -147 5 0 8 -5
8 -11 0 -13 97 -148 145 -203 63 -71 114 -165 118 -216 4 -47 -18 -130 -34
-130 -5 0 -9 -5 -9 -11 0 -6 -9 -23 -19 -38 -15 -21 -17 -28 -6 -28 8 0 12 4
9 9 -4 5 0 8 7 6 8 -1 15 2 16 7 0 6 -3 9 -9 7 -5 -1 -7 2 -3 8 4 6 13 5 26
-3 17 -10 22 -9 35 7 8 11 14 16 14 11 0 -20 83 73 107 119 30 59 33 118 8
171 -22 47 -133 185 -148 185 -6 0 -8 3 -5 6 3 3 -4 15 -16 28 -38 41 -94 119
-98 138 -2 7 -7 16 -12 20 -5 3 -11 12 -12 20 -2 7 -10 33 -19 58 -19 50 -15
130 7 158 33 43 67 72 113 96 54 28 145 106 145 124 0 7 4 12 10 12 5 0 19 18
30 40 13 25 16 40 9 40 -8 0 -8 4 0 14 8 9 8 16 2 20 -5 4 -12 2 -16 -3z m-1
-26 c-9 -14 -18 -25 -21 -25 -5 0 5 18 20 38 17 22 18 13 1 -13z"/>
<path d="M2039 4181 c-9 -9 -40 -34 -69 -56 -29 -22 -59 -46 -67 -54 -17 -17
-111 -89 -143 -111 -108 -73 -139 -135 -112 -220 8 -25 21 -52 28 -61 8 -8 14
-19 14 -24 0 -10 77 -101 155 -183 81 -85 105 -127 105 -182 0 -60 -28 -111
-105 -190 -57 -58 -108 -140 -88 -140 5 0 2 -4 -4 -8 -7 -4 -14 -26 -17 -49
-4 -40 -3 -41 29 -37 17 1 47 11 66 22 19 10 66 36 104 58 75 41 95 48 95 32
0 -7 4 -7 13 0 10 8 13 6 14 -9 1 -11 -3 -17 -9 -13 -7 4 -7 0 1 -13 6 -11 8
-23 5 -26 -3 -3 -7 -11 -8 -19 -6 -38 -89 -160 -150 -224 -53 -54 -228 -247
-244 -269 -40 -53 -59 -85 -73 -120 l-17 -40 -93 -18 c-52 -9 -107 -20 -124
-23 -16 -3 -57 -12 -90 -20 -33 -9 -67 -17 -76 -19 -88 -18 -289 -102 -363
-153 -79 -54 -81 -62 -80 -255 0 -154 10 -351 20 -400 3 -20 -4 -24 -56 -31
-35 -5 -51 -19 -136 -122 l-34 -41 0 -270 0 -270 65 -80 c60 -73 70 -81 109
-87 69 -11 168 -28 221 -40 11 -2 54 -9 96 -16 71 -11 79 -15 135 -67 190
-177 417 -265 774 -301 151 -15 667 -7 765 12 11 2 40 7 65 11 80 13 86 15
176 40 136 38 277 112 372 195 45 38 91 70 102 70 36 0 201 40 294 71 316 106
565 289 698 514 111 187 139 433 66 579 -47 93 -164 187 -305 246 -80 34 -253
76 -341 83 -29 3 -55 6 -57 8 -1 2 -5 21 -8 41 -12 90 -118 168 -326 237 -97
33 -141 44 -251 66 -14 2 -36 7 -50 10 -73 14 -269 43 -340 49 -189 18 -327
24 -553 25 -113 1 -186 5 -182 10 3 5 0 13 -6 17 -7 4 -9 3 -5 -4 5 -9 -15
-17 -69 -28 -5 -1 -52 -5 -102 -8 l-93 -7 10 25 c16 42 95 145 193 250 50 54
109 117 130 140 60 65 125 158 154 222 48 107 34 218 -35 280 -23 20 -35 24
-77 21 -27 -3 -60 -8 -72 -12 -21 -7 -21 -6 4 42 48 95 20 177 -107 313 -170
181 -178 220 -74 330 26 27 57 65 70 83 27 40 84 159 84 175 0 7 4 12 8 12 4
0 8 11 8 23 0 27 -14 30 -37 8z m1916 -2792 c25 -12 54 -33 64 -48 39 -55 46
-132 17 -189 -34 -66 -178 -177 -324 -251 -54 -27 -63 -29 -58 -14 30 102 66
309 81 463 4 36 11 67 16 70 18 12 160 -10 204 -31z"/>
<path d="M3589 3403 c-20 -8 -29 -9 -29 -1 0 7 -4 7 -12 0 -7 -5 -29 -15 -48
-20 -64 -19 -110 -38 -122 -50 -7 -7 -16 -12 -21 -12 -13 0 -67 -62 -79 -90
-11 -28 -18 -139 -9 -155 3 -5 6 -16 7 -25 2 -8 5 -22 7 -30 2 -8 8 -30 12
-47 4 -18 11 -33 15 -33 3 0 7 -6 7 -12 0 -7 9 -34 21 -59 35 -75 62 -149 56
-149 -4 0 -2 -6 4 -13 6 -7 10 -44 8 -82 -1 -62 -6 -77 -40 -129 -38 -59 -101
-126 -118 -126 -5 0 -6 -4 -3 -10 3 -5 -3 -10 -14 -10 -11 0 -23 -4 -26 -10
-3 -6 1 -7 12 -4 17 5 17 5 0 -6 -9 -6 -22 -8 -27 -5 -5 3 -7 0 -4 -8 3 -8 16
-13 30 -11 13 1 24 -1 24 -4 0 -7 39 -6 117 3 23 2 64 15 90 29 53 26 143 107
144 128 0 7 3 22 5 33 8 32 12 149 5 160 -3 6 -7 21 -8 35 -4 45 -11 74 -23
105 -6 17 -11 31 -10 33 1 1 -9 35 -21 75 -13 39 -23 74 -24 77 0 3 -5 19 -11
35 -27 75 -32 98 -29 143 4 65 38 132 91 180 24 23 44 38 44 35 0 -3 9 2 21
13 12 10 22 17 23 15 0 -3 10 0 20 6 16 9 13 10 -19 9 -21 0 -51 -6 -66 -13z"/>
</g>
</svg>
